<svg width="46" height="49" viewBox="0 0 46 49" fill="none" xmlns="http://www.w3.org/2000/svg">
<path d="M7.5829 1.00386C7.13414 0.681936 6.50938 0.784751 6.18746 1.23351L0.941358 8.5464C0.619431 8.99516 0.722247 9.61992 1.171 9.94185C1.61976 10.2638 2.24452 10.161 2.56645 9.7122L7.22964 3.21185L13.73 7.87505C14.1788 8.19697 14.8035 8.09416 15.1254 7.6454C15.4474 7.19665 15.3446 6.57189 14.8958 6.24996L7.5829 1.00386ZM43.9015 47.8394C44.3439 48.1699 44.9706 48.0792 45.3011 47.6367C45.6316 47.1942 45.5409 46.5676 45.0984 46.2371L43.9015 47.8394ZM28.6327 29.5975C23.7591 29.1323 19.0871 25.2005 15.3296 19.6862C11.5993 14.212 8.93368 7.40824 7.98673 1.65402L6.01327 1.97879C7.00859 8.02689 9.78641 15.1031 13.6768 20.8124C17.5399 26.4816 22.6656 31.037 28.4427 31.5884L28.6327 29.5975ZM29.317 24.97C28.0939 25.0073 26.7199 25.3795 25.9921 26.5337C25.2459 27.7168 25.4539 29.2727 26.3402 31.0062C27.2422 32.7705 28.9678 34.9793 31.7698 37.7255C34.5819 40.4817 38.5212 43.8204 43.9015 47.8394L45.0984 46.2371C39.7628 42.2515 35.898 38.9712 33.1697 36.2972C30.4313 33.6132 28.8801 31.5807 28.1209 30.0957C27.346 28.58 27.5082 27.8789 27.6838 27.6005C27.8776 27.2931 28.3928 26.9991 29.378 26.969L29.317 24.97ZM28.4427 31.5884C30.9927 31.8318 32.7889 30.3616 33.0924 28.5486C33.2419 27.6557 33.0078 26.7036 32.3091 25.9929C31.6126 25.2845 30.572 24.9317 29.317 24.97L29.378 26.969C30.2364 26.9428 30.6773 27.1859 30.883 27.3951C31.0864 27.602 31.175 27.8891 31.1199 28.2184C31.0142 28.8498 30.2922 29.7558 28.6327 29.5975L28.4427 31.5884Z" fill="white"/>
</svg>
